<svg id="visual" viewBox="0 0 900 600" width="900" height="600" xmlns="http://www.w3.org/2000/svg" xmlns:xlink="http://www.w3.org/1999/xlink" version="1.1"><path d="M0 512L12.5 513.5C25 515 50 518 75 516.2C100 514.3 125 507.7 150 506C175 504.3 200 507.7 225 506C250 504.3 275 497.7 300 499.8C325 502 350 513 375 514.8C400 516.7 425 509.3 450 503.8C475 498.3 500 494.7 525 497.7C550 500.7 575 510.3 600 512.5C625 514.7 650 509.3 675 507.3C700 505.3 725 506.7 750 510.5C775 514.3 800 520.7 825 521.5C850 522.3 875 517.7 887.5 515.3L900 513L900 601L887.5 601C875 601 850 601 825 601C800 601 775 601 750 601C725 601 700 601 675 601C650 601 625 601 600 601C575 601 550 601 525 601C500 601 475 601 450 601C425 601 400 601 375 601C350 601 325 601 300 601C275 601 250 601 225 601C200 601 175 601 150 601C125 601 100 601 75 601C50 601 25 601 12.5 601L0 601Z" fill="#6dbbdd"></path><path d="M0 531L12.5 532.8C25 534.7 50 538.3 75 539.5C100 540.7 125 539.3 150 542.3C175 545.3 200 552.7 225 556C250 559.3 275 558.7 300 558.2C325 557.7 350 557.3 375 555.8C400 554.3 425 551.7 450 549.2C475 546.7 500 544.3 525 545.7C550 547 575 552 600 550.2C625 548.3 650 539.7 675 534.2C700 528.7 725 526.3 750 528.3C775 530.3 800 536.7 825 542.8C850 549 875 555 887.5 558L900 561L900 601L887.5 601C875 601 850 601 825 601C800 601 775 601 750 601C725 601 700 601 675 601C650 601 625 601 600 601C575 601 550 601 525 601C500 601 475 601 450 601C425 601 400 601 375 601C350 601 325 601 300 601C275 601 250 601 225 601C200 601 175 601 150 601C125 601 100 601 75 601C50 601 25 601 12.5 601L0 601Z" fill="#b5e5f6"></path><path d="M0 573L12.5 573.2C25 573.3 50 573.7 75 573.5C100 573.3 125 572.7 150 574C175 575.3 200 578.7 225 574.8C250 571 275 560 300 560.7C325 561.3 350 573.7 375 577.5C400 581.3 425 576.7 450 575.8C475 575 500 578 525 577.7C550 577.3 575 573.7 600 568.3C625 563 650 556 675 556.5C700 557 725 565 750 568C775 571 800 569 825 570.8C850 572.7 875 578.3 887.5 581.2L900 584L900 601L887.5 601C875 601 850 601 825 601C800 601 775 601 750 601C725 601 700 601 675 601C650 601 625 601 600 601C575 601 550 601 525 601C500 601 475 601 450 601C425 601 400 601 375 601C350 601 325 601 300 601C275 601 250 601 225 601C200 601 175 601 150 601C125 601 100 601 75 601C50 601 25 601 12.5 601L0 601Z" fill="#91d8f4"></path></svg>