<svg id="visual" viewBox="0 0 900 600" width="900" height="600" xmlns="http://www.w3.org/2000/svg" xmlns:xlink="http://www.w3.org/1999/xlink" version="1.1"><path d="M0 530L12.5 528.3C25 526.7 50 523.3 75 520C100 516.7 125 513.3 150 508.5C175 503.7 200 497.3 225 500.5C250 503.7 275 516.3 300 522.5C325 528.7 350 528.3 375 527.2C400 526 425 524 450 524.3C475 524.7 500 527.3 525 528.3C550 529.3 575 528.7 600 527C625 525.3 650 522.7 675 517C700 511.3 725 502.7 750 504.3C775 506 800 518 825 521.3C850 524.7 875 519.3 887.5 516.7L900 514L900 601L887.5 601C875 601 850 601 825 601C800 601 775 601 750 601C725 601 700 601 675 601C650 601 625 601 600 601C575 601 550 601 525 601C500 601 475 601 450 601C425 601 400 601 375 601C350 601 325 601 300 601C275 601 250 601 225 601C200 601 175 601 150 601C125 601 100 601 75 601C50 601 25 601 12.5 601L0 601Z" fill="#6dbbdd"></path><path d="M0 562L12.5 555.2C25 548.3 50 534.7 75 532C100 529.3 125 537.7 150 539.5C175 541.3 200 536.7 225 539.2C250 541.7 275 551.3 300 549.5C325 547.7 350 534.3 375 531.7C400 529 425 537 450 537.5C475 538 500 531 525 529.2C550 527.3 575 530.7 600 532.7C625 534.7 650 535.3 675 538C700 540.7 725 545.3 750 547C775 548.7 800 547.3 825 548.5C850 549.7 875 553.3 887.5 555.2L900 557L900 601L887.5 601C875 601 850 601 825 601C800 601 775 601 750 601C725 601 700 601 675 601C650 601 625 601 600 601C575 601 550 601 525 601C500 601 475 601 450 601C425 601 400 601 375 601C350 601 325 601 300 601C275 601 250 601 225 601C200 601 175 601 150 601C125 601 100 601 75 601C50 601 25 601 12.5 601L0 601Z" fill="#b5e5f6"></path><path d="M0 551L12.5 554.5C25 558 50 565 75 565.2C100 565.3 125 558.7 150 555.3C175 552 200 552 225 552C250 552 275 552 300 552C325 552 350 552 375 554C400 556 425 560 450 560.8C475 561.7 500 559.3 525 557.3C550 555.3 575 553.7 600 554.3C625 555 650 558 675 562.8C700 567.7 725 574.3 750 573C775 571.7 800 562.3 825 559.8C850 557.3 875 561.7 887.5 563.8L900 566L900 601L887.5 601C875 601 850 601 825 601C800 601 775 601 750 601C725 601 700 601 675 601C650 601 625 601 600 601C575 601 550 601 525 601C500 601 475 601 450 601C425 601 400 601 375 601C350 601 325 601 300 601C275 601 250 601 225 601C200 601 175 601 150 601C125 601 100 601 75 601C50 601 25 601 12.5 601L0 601Z" fill="#91d8f4"></path></svg>