<svg id="visual" viewBox="0 0 900 600" width="900" height="600" xmlns="http://www.w3.org/2000/svg" xmlns:xlink="http://www.w3.org/1999/xlink" version="1.1"><path d="M0 100L16.7 104C33.3 108 66.7 116 100 119C133.3 122 166.7 120 200 121.7C233.3 123.3 266.7 128.7 300 132.3C333.3 136 366.7 138 400 134.5C433.3 131 466.7 122 500 115.3C533.3 108.7 566.7 104.3 600 106.7C633.3 109 666.7 118 700 124C733.3 130 766.7 133 800 128.7C833.3 124.3 866.7 112.7 883.3 106.8L900 101L900 0L883.3 0C866.7 0 833.3 0 800 0C766.7 0 733.3 0 700 0C666.7 0 633.3 0 600 0C566.7 0 533.3 0 500 0C466.7 0 433.3 0 400 0C366.7 0 333.3 0 300 0C266.7 0 233.3 0 200 0C166.7 0 133.3 0 100 0C66.7 0 33.3 0 16.7 0L0 0Z" fill="#91d8f4" stroke-linecap="round" stroke-linejoin="miter"></path></svg>