<svg id="wave" style="transform:rotate(0deg); transition: 0.3s" viewBox="0 0 1440 430" version="1.1" xmlns="http://www.w3.org/2000/svg"><defs><linearGradient id="sw-gradient-0" x1="0" x2="0" y1="1" y2="0"><stop stop-color="rgba(145, 216, 244, 1)" offset="0%"></stop><stop stop-color="rgba(145, 216, 244, 1)" offset="100%"></stop></linearGradient></defs><path style="transform:translate(0, 0px); opacity:1" fill="url(#sw-gradient-0)" d="M0,258L60,250.8C120,244,240,229,360,193.5C480,158,600,100,720,121.8C840,143,960,244,1080,250.8C1200,258,1320,172,1440,150.5C1560,129,1680,172,1800,164.8C1920,158,2040,100,2160,100.3C2280,100,2400,158,2520,172C2640,186,2760,158,2880,179.2C3000,201,3120,272,3240,279.5C3360,287,3480,229,3600,222.2C3720,215,3840,258,3960,293.8C4080,330,4200,358,4320,372.7C4440,387,4560,387,4680,372.7C4800,358,4920,330,5040,293.8C5160,258,5280,215,5400,215C5520,215,5640,258,5760,229.3C5880,201,6000,100,6120,64.5C6240,29,6360,57,6480,86C6600,115,6720,143,6840,157.7C6960,172,7080,172,7200,150.5C7320,129,7440,86,7560,71.7C7680,57,7800,72,7920,107.5C8040,143,8160,201,8280,207.8C8400,215,8520,172,8580,150.5L8640,129L8640,430L8580,430C8520,430,8400,430,8280,430C8160,430,8040,430,7920,430C7800,430,7680,430,7560,430C7440,430,7320,430,7200,430C7080,430,6960,430,6840,430C6720,430,6600,430,6480,430C6360,430,6240,430,6120,430C6000,430,5880,430,5760,430C5640,430,5520,430,5400,430C5280,430,5160,430,5040,430C4920,430,4800,430,4680,430C4560,430,4440,430,4320,430C4200,430,4080,430,3960,430C3840,430,3720,430,3600,430C3480,430,3360,430,3240,430C3120,430,3000,430,2880,430C2760,430,2640,430,2520,430C2400,430,2280,430,2160,430C2040,430,1920,430,1800,430C1680,430,1560,430,1440,430C1320,430,1200,430,1080,430C960,430,840,430,720,430C600,430,480,430,360,430C240,430,120,430,60,430L0,430Z"></path></svg>