<svg id="visual" viewBox="0 0 900 600" width="900" height="600" xmlns="http://www.w3.org/2000/svg" xmlns:xlink="http://www.w3.org/1999/xlink" version="1.1"><path d="M0 114L16.7 118.7C33.3 123.3 66.7 132.7 100 137.3C133.3 142 166.7 142 200 136.2C233.3 130.3 266.7 118.7 300 118.7C333.3 118.7 366.7 130.3 400 129C433.3 127.7 466.7 113.3 500 107.5C533.3 101.7 566.7 104.3 600 110.3C633.3 116.3 666.7 125.7 700 126.5C733.3 127.3 766.7 119.7 800 118C833.3 116.3 866.7 120.7 883.3 122.8L900 125L900 0L883.3 0C866.7 0 833.3 0 800 0C766.7 0 733.3 0 700 0C666.7 0 633.3 0 600 0C566.7 0 533.3 0 500 0C466.7 0 433.3 0 400 0C366.7 0 333.3 0 300 0C266.7 0 233.3 0 200 0C166.7 0 133.3 0 100 0C66.7 0 33.3 0 16.7 0L0 0Z" fill="#ffffff" stroke-linecap="round" stroke-linejoin="miter"></path></svg>