<svg id="visual" viewBox="0 0 900 600" width="900" height="600" xmlns="http://www.w3.org/2000/svg" xmlns:xlink="http://www.w3.org/1999/xlink" version="1.1"><path d="M0 499L12.5 497.7C25 496.3 50 493.7 75 497.2C100 500.7 125 510.3 150 511.3C175 512.3 200 504.7 225 505C250 505.3 275 513.7 300 512.3C325 511 350 500 375 495.8C400 491.7 425 494.3 450 494.5C475 494.7 500 492.3 525 496.5C550 500.7 575 511.3 600 514C625 516.7 650 511.3 675 510C700 508.7 725 511.3 750 513.5C775 515.7 800 517.3 825 514.2C850 511 875 503 887.5 499L900 495L900 601L887.5 601C875 601 850 601 825 601C800 601 775 601 750 601C725 601 700 601 675 601C650 601 625 601 600 601C575 601 550 601 525 601C500 601 475 601 450 601C425 601 400 601 375 601C350 601 325 601 300 601C275 601 250 601 225 601C200 601 175 601 150 601C125 601 100 601 75 601C50 601 25 601 12.5 601L0 601Z" fill="#eeeeee"></path><path d="M0 542L12.5 540.3C25 538.7 50 535.3 75 536C100 536.7 125 541.3 150 539.3C175 537.3 200 528.7 225 524.5C250 520.3 275 520.7 300 521.5C325 522.3 350 523.7 375 526C400 528.3 425 531.7 450 532.3C475 533 500 531 525 531.5C550 532 575 535 600 533.7C625 532.3 650 526.7 675 526.2C700 525.7 725 530.3 750 531.2C775 532 800 529 825 526.8C850 524.7 875 523.3 887.5 522.7L900 522L900 601L887.5 601C875 601 850 601 825 601C800 601 775 601 750 601C725 601 700 601 675 601C650 601 625 601 600 601C575 601 550 601 525 601C500 601 475 601 450 601C425 601 400 601 375 601C350 601 325 601 300 601C275 601 250 601 225 601C200 601 175 601 150 601C125 601 100 601 75 601C50 601 25 601 12.5 601L0 601Z" fill="#f9f9f9"></path><path d="M0 545L12.5 544.3C25 543.7 50 542.3 75 544.2C100 546 125 551 150 552.3C175 553.7 200 551.3 225 551.8C250 552.3 275 555.7 300 557.7C325 559.7 350 560.3 375 558.2C400 556 425 551 450 549.5C475 548 500 550 525 552.2C550 554.3 575 556.7 600 557.5C625 558.3 650 557.7 675 556.7C700 555.7 725 554.3 750 551.3C775 548.3 800 543.7 825 541.2C850 538.7 875 538.3 887.5 538.2L900 538L900 601L887.5 601C875 601 850 601 825 601C800 601 775 601 750 601C725 601 700 601 675 601C650 601 625 601 600 601C575 601 550 601 525 601C500 601 475 601 450 601C425 601 400 601 375 601C350 601 325 601 300 601C275 601 250 601 225 601C200 601 175 601 150 601C125 601 100 601 75 601C50 601 25 601 12.5 601L0 601Z" fill="#ffffff"></path><path d="M0 589L12.5 588.3C25 587.7 50 586.3 75 583.8C100 581.3 125 577.7 150 575C175 572.3 200 570.7 225 569.8C250 569 275 569 300 571.7C325 574.3 350 579.7 375 580.7C400 581.7 425 578.3 450 574C475 569.7 500 564.3 525 565.2C550 566 575 573 600 577.8C625 582.7 650 585.3 675 584C700 582.7 725 577.3 750 573.3C775 569.3 800 566.7 825 569.5C850 572.3 875 580.7 887.5 584.8L900 589L900 601L887.5 601C875 601 850 601 825 601C800 601 775 601 750 601C725 601 700 601 675 601C650 601 625 601 600 601C575 601 550 601 525 601C500 601 475 601 450 601C425 601 400 601 375 601C350 601 325 601 300 601C275 601 250 601 225 601C200 601 175 601 150 601C125 601 100 601 75 601C50 601 25 601 12.5 601L0 601Z" fill="#ffffff"></path></svg>