<svg id="visual" viewBox="0 0 900 600" width="900" height="600" xmlns="http://www.w3.org/2000/svg" xmlns:xlink="http://www.w3.org/1999/xlink" version="1.1"><path d="M0 135L16.7 135.3C33.3 135.7 66.7 136.3 100 131.3C133.3 126.3 166.7 115.7 200 113.7C233.3 111.7 266.7 118.3 300 123.3C333.3 128.3 366.7 131.7 400 128.7C433.3 125.7 466.7 116.3 500 117.3C533.3 118.3 566.7 129.7 600 128.5C633.3 127.3 666.7 113.7 700 111.5C733.3 109.3 766.7 118.7 800 125.5C833.3 132.3 866.7 136.7 883.3 138.8L900 141L900 0L883.3 0C866.7 0 833.3 0 800 0C766.7 0 733.3 0 700 0C666.7 0 633.3 0 600 0C566.7 0 533.3 0 500 0C466.7 0 433.3 0 400 0C366.7 0 333.3 0 300 0C266.7 0 233.3 0 200 0C166.7 0 133.3 0 100 0C66.7 0 33.3 0 16.7 0L0 0Z" fill="#ffffff" stroke-linecap="round" stroke-linejoin="miter"></path></svg>